<svg width="64" height="64" viewBox="0 0 64 64" fill="none" xmlns="http://www.w3.org/2000/svg">
<g id="Vector">
<path id="Vector_2" d="M31.8301 0.673828C25.5846 0.673828 19.4794 2.52478 14.2865 5.99263C9.09357 9.46047 5.04619 14.3894 2.65616 20.1563C0.266123 25.9231 -0.359219 32.2687 0.859211 38.3907C2.07764 44.5127 5.08512 50.1362 9.50132 54.5499C13.9175 58.9636 19.5441 61.9694 25.6696 63.1871C31.795 64.4049 38.1442 63.7799 43.9143 61.3912C49.6844 59.0025 54.6161 54.9574 58.0859 49.7674C61.5557 44.5774 63.4077 38.4756 63.4077 32.2337C63.4077 23.8635 60.0808 15.8361 54.1588 9.9175C48.2369 3.99888 40.205 0.673828 31.8301 0.673828ZM48.6271 34.2513L21.5606 47.7769C21.2166 47.9487 20.8344 48.0298 20.4503 48.0124C20.0662 47.995 19.6929 47.8797 19.3659 47.6776C19.0388 47.4754 18.769 47.1931 18.5819 46.8574C18.3948 46.5216 18.2966 46.1437 18.2968 45.7594V18.708C18.297 18.3239 18.3954 17.9462 18.5827 17.6108C18.77 17.2754 19.0399 16.9934 19.3668 16.7915C19.6938 16.5896 20.0669 16.4745 20.4509 16.4572C20.8348 16.44 21.2168 16.521 21.5606 16.6927L48.6271 30.2184C49.0013 30.4058 49.3159 30.6936 49.5357 31.0495C49.7556 31.4054 49.872 31.8154 49.872 32.2337C49.872 32.652 49.7556 33.062 49.5357 33.4179C49.3159 33.7738 49.0013 34.0616 48.6271 34.249V34.2513Z" fill="#EDEDED"/>
</g>
</svg>
