<svg width="71" height="69" viewBox="0 0 71 69" fill="none" xmlns="http://www.w3.org/2000/svg">
<g id="ri:share-fill">
<path id="Vector" d="M40.1625 49.2054L25.0454 41.3089C23.5943 42.6884 21.7493 43.6256 19.7429 44.0023C17.7365 44.3791 15.6585 44.1784 13.771 43.4257C11.8835 42.673 10.2709 41.4019 9.13653 39.7727C8.00218 38.1435 7.39685 36.2291 7.39685 34.2709C7.39685 32.3127 8.00218 30.3983 9.13653 28.7691C10.2709 27.1399 11.8835 25.8688 13.771 25.1161C15.6585 24.3634 17.7365 24.1628 19.7429 24.5395C21.7493 24.9162 23.5943 25.8534 25.0454 27.2329L40.1625 19.3364C39.644 17.0067 40.0185 14.576 41.2174 12.489C42.4163 10.4019 44.3596 8.79791 46.6918 7.9703C49.0241 7.14269 51.5894 7.14676 53.9188 7.98178C56.2481 8.8168 58.1858 10.427 59.3775 12.5178C60.5692 14.6087 60.9352 17.0405 60.4087 19.3686C59.8822 21.6967 58.4982 23.7654 56.51 25.1966C54.5217 26.6277 52.062 27.3256 49.5807 27.1626C47.0994 26.9996 44.7622 25.9866 42.9966 24.3089L27.8795 32.2054C28.1806 33.5663 28.1806 34.9726 27.8795 36.3336L42.9966 44.2329C44.7622 42.5552 47.0994 41.5422 49.5807 41.3792C52.062 41.2162 54.5217 41.9141 56.51 43.3452C58.4982 44.7764 59.8822 46.8451 60.4087 49.1732C60.9352 51.5013 60.5692 53.9331 59.3775 56.024C58.1858 58.1149 56.2481 59.725 53.9188 60.56C51.5894 61.395 49.0241 61.3991 46.6918 60.5715C44.3596 59.7439 42.4163 58.1399 41.2174 56.0529C40.0185 53.9658 39.644 51.5352 40.1625 49.2054Z" fill="#EDEDED"/>
</g>
</svg>
